<mxfile host="app.diagrams.net" agent="Mozilla/5.0 (Windows NT 10.0; Win64; x64) AppleWebKit/537.36 (KHTML, like Gecko) Chrome/128.0.0.0 Safari/537.36 OPR/114.0.0.0" version="25.0.3">
  <diagram name="Page-1" id="4Y_P6vZuUkGtKaATaK-g">
    <mxGraphModel dx="753" dy="470" grid="1" gridSize="10" guides="1" tooltips="1" connect="1" arrows="1" fold="1" page="1" pageScale="1" pageWidth="850" pageHeight="1100" math="0" shadow="0">
      <root>
        <mxCell id="0" />
        <mxCell id="1" parent="0" />
        <mxCell id="2" value="Database Server" style="whiteSpace=wrap;strokeWidth=2;" parent="1" vertex="1">
          <mxGeometry x="17" y="760" width="313" height="280" as="geometry" />
        </mxCell>
        <mxCell id="3" value="Worker" style="whiteSpace=wrap;strokeWidth=2;fillColor=#dae8fc;strokeColor=#6c8ebf;" parent="1" vertex="1">
          <mxGeometry x="425" y="205" width="326" height="88" as="geometry" />
        </mxCell>
        <mxCell id="4" value="App Server" style="whiteSpace=wrap;strokeWidth=2;" parent="1" vertex="1">
          <mxGeometry x="425" y="340" width="471" height="194" as="geometry" />
        </mxCell>
        <mxCell id="5" value="Web Server" style="whiteSpace=wrap;strokeWidth=2;" parent="1" vertex="1">
          <mxGeometry x="8" y="8" width="382" height="672" as="geometry" />
        </mxCell>
        <mxCell id="6" value="Web Server" style="ellipse;aspect=fixed;strokeWidth=2;whiteSpace=wrap;" parent="1" vertex="1">
          <mxGeometry x="138" y="33" width="95" height="95" as="geometry" />
        </mxCell>
        <mxCell id="7" value="App Server" style="ellipse;aspect=fixed;strokeWidth=2;whiteSpace=wrap;" parent="1" vertex="1">
          <mxGeometry x="140" y="201" width="92" height="92" as="geometry" />
        </mxCell>
        <mxCell id="8" value="Database" style="ellipse;aspect=fixed;strokeWidth=2;whiteSpace=wrap;" parent="1" vertex="1">
          <mxGeometry x="147" y="577" width="82" height="82" as="geometry" />
        </mxCell>
        <mxCell id="9" value="API" style="ellipse;aspect=fixed;strokeWidth=2;whiteSpace=wrap;" parent="1" vertex="1">
          <mxGeometry x="480" y="395" width="84" height="84" as="geometry" />
        </mxCell>
        <mxCell id="10" value="DB 1" style="ellipse;aspect=fixed;strokeWidth=2;whiteSpace=wrap;" parent="1" vertex="1">
          <mxGeometry x="55" y="782" width="48" height="48" as="geometry" />
        </mxCell>
        <mxCell id="11" value="DB 2" style="ellipse;aspect=fixed;strokeWidth=2;whiteSpace=wrap;" parent="1" vertex="1">
          <mxGeometry x="153" y="782" width="48" height="48" as="geometry" />
        </mxCell>
        <mxCell id="12" value="DB 3" style="ellipse;aspect=fixed;strokeWidth=2;whiteSpace=wrap;" parent="1" vertex="1">
          <mxGeometry x="250" y="782" width="48" height="48" as="geometry" />
        </mxCell>
        <mxCell id="13" value="Request" style="curved=1;startArrow=none;endArrow=block;exitX=0;exitY=0.88;entryX=0;entryY=0.13;" parent="1" source="6" target="7" edge="1">
          <mxGeometry relative="1" as="geometry">
            <Array as="points">
              <mxPoint x="74" y="165" />
            </Array>
          </mxGeometry>
        </mxCell>
        <mxCell id="14" value="Query DB" style="curved=1;startArrow=none;endArrow=block;exitX=0;exitY=0.88;entryX=0;entryY=0.16;" parent="1" source="7" target="8" edge="1">
          <mxGeometry relative="1" as="geometry">
            <Array as="points">
              <mxPoint x="77" y="330" />
              <mxPoint x="77" y="541" />
            </Array>
          </mxGeometry>
        </mxCell>
        <mxCell id="15" value="Request" style="curved=1;startArrow=none;endArrow=block;exitX=0.99;exitY=0.03;entryX=1;entryY=0.98;" parent="1" source="7" target="6" edge="1">
          <mxGeometry relative="1" as="geometry">
            <Array as="points">
              <mxPoint x="273" y="165" />
            </Array>
          </mxGeometry>
        </mxCell>
        <mxCell id="16" value="Query" style="curved=1;startArrow=none;endArrow=block;exitX=0;exitY=0.8;entryX=0.49;entryY=0.01;" parent="1" source="8" target="10" edge="1">
          <mxGeometry x="0.2192" y="11" relative="1" as="geometry">
            <Array as="points">
              <mxPoint x="79" y="684" />
            </Array>
            <mxPoint as="offset" />
          </mxGeometry>
        </mxCell>
        <mxCell id="17" value="Query" style="curved=1;startArrow=none;endArrow=block;exitX=0.41;exitY=1;entryX=0.49;entryY=0.01;" parent="1" source="8" target="11" edge="1">
          <mxGeometry relative="1" as="geometry">
            <Array as="points">
              <mxPoint x="176" y="684" />
            </Array>
          </mxGeometry>
        </mxCell>
        <mxCell id="18" value="Query" style="curved=1;startArrow=none;endArrow=block;exitX=1;exitY=0.88;entryX=0.5;entryY=0.01;" parent="1" source="8" target="12" edge="1">
          <mxGeometry x="0.2503" y="-4" relative="1" as="geometry">
            <Array as="points">
              <mxPoint x="274" y="684" />
            </Array>
            <mxPoint as="offset" />
          </mxGeometry>
        </mxCell>
        <mxCell id="19" value="Communicate" style="curved=1;startArrow=none;endArrow=block;entryX=1;entryY=0;" parent="1" source="9" target="8" edge="1">
          <mxGeometry x="0.3127" y="7" relative="1" as="geometry">
            <Array as="points">
              <mxPoint x="433" y="504" />
              <mxPoint x="265" y="541" />
            </Array>
            <mxPoint x="1" y="-1" as="offset" />
          </mxGeometry>
        </mxCell>
        <mxCell id="20" value="Process Data" style="curved=1;startArrow=none;endArrow=block;" parent="1" source="7" target="3" edge="1">
          <mxGeometry relative="1" as="geometry">
            <Array as="points" />
          </mxGeometry>
        </mxCell>
        <mxCell id="23" value="Communicate" style="curved=1;startArrow=none;endArrow=block;" parent="1" source="3" target="7" edge="1">
          <mxGeometry relative="1" as="geometry">
            <Array as="points" />
          </mxGeometry>
        </mxCell>
      </root>
    </mxGraphModel>
  </diagram>
</mxfile>
